<?xml version="1.0" encoding="UTF-8"?>
<!-- Generator: Adobe Illustrator 15.0.2, SVG Export Plug-In  -->
<!DOCTYPE svg PUBLIC "-//W3C//DTD SVG 1.1//EN" "http://www.w3.org/Graphics/SVG/1.1/DTD/svg11.dtd">
<svg version="1.1" xmlns="http://www.w3.org/2000/svg" xmlns:xlink="http://www.w3.org/1999/xlink" xmlns:a="http://ns.adobe.com/AdobeSVGViewerExtensions/3.0/" x="0px" y="0px" width="71px" height="71px" viewBox="0 0 71 71" overflow="visible" enable-background="new 0 0 71 71" xml:space="preserve">
<defs>
</defs>
<rect width="70.865" height="70.865"/>
<path fill="#FFFFFF" d="M21.377,8.789v3.079c-1.791,0.64-3.17,2.383-3.17,4.399c0,2.018,1.379,3.754,3.17,4.392v3.087  c-3.474-0.705-6.093-3.798-6.093-7.479C15.284,12.589,17.903,9.494,21.377,8.789z M14.114,8.862h-3.011v14.811h3.011V8.862z   M52.342,47.95c-0.301-0.508-0.746-0.839-1.354-0.839c-0.543,0-1.042,0.291-1.31,0.762c-0.154,0.274-0.189,0.583-0.189,0.882v13.366  h3.01v-8.13l4.521,7.583c0.283,0.472,0.781,0.734,1.294,0.734c0.232,0,0.472-0.069,0.716-0.214c0.712-0.425,0.946-1.351,0.521-2.062  L52.342,47.95z M56.751,47.3v5.39l3.012,5.045V47.3H56.751z M59.763,23.747V20.66c-1.791-0.638-3.081-2.374-3.081-4.392  c0-2.017,1.29-3.76,3.081-4.399V8.789c-3.475,0.705-6.093,3.8-6.093,7.479C53.67,19.949,56.288,23.042,59.763,23.747z M52.499,8.862  h-3.01v14.811h3.01V8.862z M27.878,35.432L27.878,35.432c0,3.962,2.987,7.244,6.854,7.601v-3.004  c-2.198-0.347-3.93-2.286-3.93-4.597l0,0c0-2.307,1.732-4.259,3.93-4.605v-2.993C30.865,28.19,27.878,31.473,27.878,35.432z   M36.134,27.833v2.993c2.197,0.346,3.932,2.299,3.932,4.605l0,0c0,2.311-1.734,4.25-3.932,4.597v3.004  c3.868-0.356,6.854-3.639,6.854-7.601l0,0C42.987,31.473,40.002,28.19,36.134,27.833z M14.114,59.204v-3.162h4.84v-2.915h-4.84  v-2.908h7.072V47.3h-8.577c-0.833,0-1.506,0.675-1.506,1.507v11.81c0,0.83,0.673,1.505,1.506,1.505h8.765v-2.917H14.114z"/>
<script xmlns=""/></svg>